<?xml version="1.0" encoding="UTF-8"?>
<svg id="Layer_2" data-name="Layer 2" xmlns="http://www.w3.org/2000/svg" xmlns:xlink="http://www.w3.org/1999/xlink" viewBox="0 0 430 352">
  <defs>
    <style>
      .cls-1 {
        fill: #462375;
      }
      .cls-2 {
        fill: url(#linear-gradient);
      }
    </style>
    <linearGradient id="linear-gradient" x1="0" y1="175.8" x2="430" y2="175.8" gradientUnits="userSpaceOnUse">
      <stop offset="0" stop-color="#924d9e"/>
      <stop offset="1" stop-color="#371472"/>
    </linearGradient>
  </defs>
  <g id="Layer_1-2" data-name="Layer 1">
    <g>
      <path class="cls-2" d="M125.01,37.2L41.3,120.91c24.96-24.96,54.02,5.42,54.02,5.42l104.4,104.4c8.03,8.03,21.05,8.03,29.08,0l33.58-33.58c4.36-4.36,11.44-4.37,15.81,0l29.1,29.1-42.41,42.41c-26.99,26.99-70.75,26.99-97.74,0l-114.27-114.27c-5.91-5.91-12.09-8.5-17.87-9.21-19.98-2.46-37.34,14.83-34.77,34.81.89,6.94,4,13.66,9.33,18.99l115.43,115.43c49.6,49.6,130.01,49.6,179.61,0l115.42-115.42c12.8-12.8,12.81-33.55,0-46.36l-115.42-115.42c-49.6-49.6-130.02-49.6-179.62,0ZM355.81,177.75l-8.08,8.08c-14.59,14.59-38.23,14.59-52.82,0l-63.78-63.78c-9.13-9.13-23.94-9.13-33.06,0l-32.88,32.88c-3.87,3.87-10.15,3.87-14.01,0l-28.57-28.57,44.38-44.38c25.7-25.7,67.37-25.7,93.07,0l95.76,95.76Z"/>
    </g>
  </g>
</svg>